<?xml version="1.0" encoding="utf-8"?>
<!-- Generator: Adobe Illustrator 19.0.0, SVG Export Plug-In . SVG Version: 6.00 Build 0)  -->
<svg version="1.1" id="Layer_1" xmlns="http://www.w3.org/2000/svg" xmlns:xlink="http://www.w3.org/1999/xlink" x="0px" y="0px"
	 viewBox="100 -61 512 512" style="enable-background:new 100 -61 512 512;" xml:space="preserve">
<style type="text/css">
	.st0{fill:#EAEAEA;}
	.st1{fill:none;stroke:#FFFFFF;stroke-width:10;stroke-linecap:round;stroke-linejoin:round;}
	.st2{fill:none;stroke:#FFFFFF;stroke-width:10;stroke-linecap:round;stroke-linejoin:round;stroke-dasharray:20.7238,20.7238;}
	.st3{fill:none;stroke:#FFFFFF;stroke-width:10;stroke-linecap:round;stroke-linejoin:round;stroke-dasharray:26.4031,26.4031;}
	.st4{fill:none;stroke:#FFFFFF;stroke-width:10;stroke-linecap:round;stroke-linejoin:round;stroke-dasharray:37.0961,37.0961;}
	.st5{fill:none;stroke:#FFFFFF;stroke-width:10;stroke-linecap:round;stroke-linejoin:round;stroke-dasharray:34.6731,34.6731;}
</style>
<path id="CloudShadow" class="st0" d="M441.4,113.9C436,57,385.4,12.3,323.7,12.3c-65.3,0-118.2,50.1-118.2,111.8
	c0,6,0.5,11.9,1.5,17.6l0,0c-41,4.8-72.9,40.7-72.9,84.1c0,46.7,36.9,84.6,82.4,84.6h302.2c33.1,0,60-24,60-53.5
	c0-26.7-21.9-48.9-50.6-52.9l0,0c0-46.8-36.7-90.2-82.3-90.2C444.3,113.8,442.9,113.9,441.4,113.9"/>
<g id="Cloud_1_">
	<g>
		<path class="st1" d="M518.7,310.4c4.1,0,8.1-0.4,11.9-1.1"/>
		<path class="st2" d="M550.1,302.5c17.1-9.4,28.6-26.3,28.6-45.6c0-19.6-11.8-36.8-29.4-46.1"/>
		<path class="st1" d="M539.7,206.7c-3.7-1.2-7.6-2.2-11.7-2.7c0-4-0.3-8-0.9-12"/>
		<path class="st3" d="M519.4,166.9c-14.4-30.3-45-52.9-78-52.9c-1.5,0,1.4-0.1,0,0c-15.3,0.8-29.5,5.9-41.4,14.1"/>
		<path class="st1" d="M389.8,136.4c-2.9,2.8-5.6,5.7-8.1,8.9"/>
	</g>
</g>
<g id="Cloud">
	<g>
		<path class="st1" d="M441.4,113.9c-0.6-5.9-1.6-11.6-3.1-17.2"/>
		<path class="st4" d="M422.9,63.2c-21.1-30.7-57.6-50.9-99.1-50.9c-58.7,0-107.4,40.5-116.6,93.5"/>
		<path class="st1" d="M205.6,124.3c0,5.9,0.5,11.7,1.5,17.4c-5.9,0.7-11.6,2-17,3.9"/>
		<path class="st5" d="M160.6,163.6c-16.3,15.5-26.5,37.6-26.5,62.2c0,46.7,36.9,84.6,82.4,84.6h267.3"/>
		<line class="st1" x1="501.2" y1="310.4" x2="518.7" y2="310.4"/>
	</g>
</g>
</svg>
