<?xml version="1.0" encoding="utf-8"?>
<!-- Generator: Adobe Illustrator 19.0.0, SVG Export Plug-In . SVG Version: 6.00 Build 0)  -->
<svg version="1.1" id="Layer_1" xmlns="http://www.w3.org/2000/svg" xmlns:xlink="http://www.w3.org/1999/xlink" x="0px" y="0px"
	 viewBox="100 -61 512 512" style="enable-background:new 100 -61 512 512;" xml:space="preserve">
<style type="text/css">
	.st0{opacity:0.2;}
	.st1{fill:#231F20;}
	.st2{fill:#D8EAEF;}
	.st3{fill:#FFFFFF;}
	.st4{fill:none;stroke:#354F65;stroke-width:13;stroke-linecap:round;stroke-linejoin:round;stroke-miterlimit:10;}
</style>
<g class="st0">
	<path class="st1" d="M505.1,214c0-68.5-65.9-124-147.2-124c-69,0-126.7,40-142.7,94c-44.2,5.6-78.1,37.7-78.1,76.5
		c0,42.8,41.2,77.5,92,77.5h276c40.6,0,73.6-27.8,73.6-62S545.7,214,505.1,214z"/>
</g>
<path id="CloudShadow" class="st2" d="M441.4,113.9C436,57,385.4,12.3,323.7,12.3c-65.3,0-118.2,50.1-118.2,111.8
	c0,6,0.5,11.9,1.5,17.6l0,0c-41,4.8-72.9,40.7-72.9,84.1c0,46.7,36.9,84.6,82.4,84.6h302.2c33.1,0,60-24,60-53.5
	c0-26.7-21.9-48.9-50.6-52.9l0,0c0-46.8-36.7-90.2-82.3-90.2C444.3,113.8,442.9,113.9,441.4,113.9"/>
<path id="CloudShadowmask" class="st3" d="M397.2,113.9c-4.6-57-47.5-102.6-100.1-98.8c-33.1,2.4-91.5,47.2-91.5,109
	c0,6,1.5,17.6,1.5,17.6c-38.1,3.4-72.9,40.7-72.9,84.1c0,46.7,31.6,84.6,70.6,84.6h258.7c28.4,0,51.3-24,51.3-53.5
	c0-26.7-18.8-48.9-43.3-52.9l0,0c0-46.8-31.4-90.2-70.4-90.2C399.7,113.8,398.4,113.9,397.2,113.9c-20.6,1.3-38.9,13.2-51.1,31.3"/>
<path id="Cloud_1_" class="st4" d="M518.7,310.4c33.1,0,60-24,60-53.5c0-26.7-21.9-48.9-50.6-52.9l0,0c0-46.8-41.1-90-86.6-90
	c-1.5,0,1.4-0.1,0,0c-24.1,1.3-45.5,13.2-59.7,31.3"/>
<path id="Cloud" class="st4" d="M441.4,113.9C436,57,385.4,12.3,323.7,12.3c-65.3,0-118.2,50.1-118.2,111.8c0,6,0.5,11.9,1.5,17.6
	l0,0c-41,4.8-72.9,40.7-72.9,84.1c0,46.7,36.9,84.6,82.4,84.6h302.2"/>
<g>
	<g>
		<g>
			<g>
				<path class="st4" d="M277.1,188.8c0-2.7,2.6-5.4,3.1-5.9c1.4-1.9,38.4-51,43.8-56.3c2-2,3.9-2.3,5.2-2.2
					c3.1,0.1,5.3,2.6,5.5,2.8l45.2,54.6c0.7,0.6,3.4,3.4,3.4,6c0,1.2-0.6,4-5.6,4h-23.3v77.1c0,0.2,0.1,0.5,0.1,0.8
					c0,0.9-0.3,5.4-7.1,5.4h-35.8c-5,0-6.3-3.5-6.3-5.4v-76.3h-21.4C277.9,193.3,277.1,190.5,277.1,188.8z M281.4,188.8h-2.2H281.4
					L281.4,188.8z"/>
			</g>
		</g>
	</g>
</g>
</svg>
