<?xml version="1.0" encoding="utf-8"?>
<!-- Generator: Adobe Illustrator 19.2.1, SVG Export Plug-In . SVG Version: 6.00 Build 0)  -->
<svg version="1.1" id="Ebene_1" xmlns="http://www.w3.org/2000/svg" xmlns:xlink="http://www.w3.org/1999/xlink" x="0px" y="0px"
	 viewBox="0 0 800 600" style="enable-background:new 0 0 800 600;" xml:space="preserve">
<style type="text/css">
	.st0{fill:none;stroke:#000000;stroke-miterlimit:10;}
	.st1{fill:#020201;}
</style>
<g>
	<polygon class="st0" points="5,5 795,5 793.8,595 3.8,595 	"/>
	<line class="st0" x1="5" y1="529.4" x2="795" y2="529.4"/>
	<line class="st0" x1="5" y1="463.9" x2="795" y2="463.9"/>
	<line class="st0" x1="5" y1="398.3" x2="795" y2="398.3"/>
	<line class="st0" x1="5" y1="332.8" x2="795" y2="332.8"/>
	<line class="st0" x1="5" y1="267.2" x2="795" y2="267.2"/>
	<line class="st0" x1="5" y1="201.7" x2="795" y2="201.7"/>
	<line class="st0" x1="5" y1="136.1" x2="795" y2="136.1"/>
	<line class="st0" x1="5" y1="70.6" x2="795" y2="70.6"/>
	<line class="st0" x1="682.1" y1="5" x2="682.1" y2="595"/>
	<line class="st0" x1="569.3" y1="5" x2="569.3" y2="595"/>
	<line class="st0" x1="456.4" y1="5" x2="456.4" y2="595"/>
	<line class="st0" x1="343.6" y1="5" x2="343.6" y2="595"/>
	<line class="st0" x1="230.7" y1="5" x2="230.7" y2="595"/>
	<line class="st0" x1="117.9" y1="5" x2="117.9" y2="595"/>
</g>
<path class="st1" d="M86.9,63.1c-0.8-2.3-2.1-4.6-4.1-5.9c-3.9-2.6-8.4-4-12.8-5.4c-1.1-0.4-2.1-0.8-3.1-1.3
	c-0.9-0.5-1.2-1.6-1.4-2.5c-0.1-0.5-0.1-1-0.2-1.5c3.2-4.3,5.3-11.4,5.3-17.2c0-9.1-5.1-11.6-11.4-11.6c-6.3,0-11.4,2.5-11.4,11.6
	c0,6,2.3,13.4,5.6,17.7c0,0.3-0.1,0.7-0.1,1c-0.2,0.9-0.5,2-1.4,2.5c-1,0.6-2,0.9-3.1,1.3c-4.4,1.5-8.9,2.8-12.8,5.4
	c-2,1.3-3.4,3.8-4.1,6c-0.8,2.4-1.1,5.3-1,7.6h28.6H88C88,68.3,87.7,65.4,86.9,63.1z"/>
<path class="st1" d="M310.7,1347c-0.8-2.3-2.1-4.6-4.1-5.9c-3.9-2.6-8.4-4-12.8-5.4c-1.1-0.4-2.1-0.8-3.1-1.3
	c-0.9-0.5-1.2-1.6-1.4-2.5c-0.1-0.5-0.1-1-0.2-1.5c3.2-4.3,5.3-11.4,5.3-17.2c0-9.1-5.1-11.6-11.4-11.6c-6.3,0-11.4,2.5-11.4,11.6
	c0,6,2.3,13.4,5.6,17.7c0,0.3-0.1,0.7-0.1,1c-0.2,0.9-0.5,2-1.4,2.5c-1,0.6-2,0.9-3.1,1.3c-4.4,1.5-8.9,2.8-12.8,5.4
	c-2,1.3-3.4,3.8-4.1,6c-0.8,2.4-1.1,5.3-1,7.6h28.6h28.6C311.8,1352.2,311.5,1349.3,310.7,1347z"/>
<path class="st1" d="M423.7,1347c-0.8-2.3-2.1-4.6-4.1-5.9c-3.9-2.6-8.4-4-12.8-5.4c-1.1-0.4-2.1-0.8-3.1-1.3
	c-0.9-0.5-1.2-1.6-1.4-2.5c-0.1-0.5-0.1-1-0.2-1.5c3.2-4.3,5.3-11.4,5.3-17.2c0-9.1-5.1-11.6-11.4-11.6c-6.3,0-11.4,2.5-11.4,11.6
	c0,6,2.3,13.4,5.6,17.7c0,0.3-0.1,0.7-0.1,1c-0.2,0.9-0.5,2-1.4,2.5c-1,0.6-2,0.9-3.1,1.3c-4.4,1.5-8.9,2.8-12.8,5.4
	c-2,1.3-3.4,3.8-4.1,6c-0.8,2.4-1.1,5.3-1,7.6h28.6h28.6C424.8,1352.2,424.5,1349.3,423.7,1347z"/>
<path class="st1" d="M537.3,1347c-0.8-2.3-2.1-4.6-4.1-5.9c-3.9-2.6-8.4-4-12.8-5.4c-1.1-0.4-2.1-0.8-3.1-1.3
	c-0.9-0.5-1.2-1.6-1.4-2.5c-0.1-0.5-0.1-1-0.2-1.5c3.2-4.3,5.3-11.4,5.3-17.2c0-9.1-5.1-11.6-11.4-11.6c-6.3,0-11.4,2.5-11.4,11.6
	c0,6,2.3,13.4,5.6,17.7c0,0.3-0.1,0.7-0.1,1c-0.2,0.9-0.5,2-1.4,2.5c-1,0.6-2,0.9-3.1,1.3c-4.4,1.5-8.9,2.8-12.8,5.4
	c-2,1.3-3.4,3.8-4.1,6c-0.8,2.4-1.1,5.3-1,7.6h28.6h28.6C538.4,1352.2,538.1,1349.3,537.3,1347z"/>
<path class="st1" d="M649.8,1347c-0.8-2.3-2.1-4.6-4.1-5.9c-3.9-2.6-8.4-4-12.8-5.4c-1.1-0.4-2.1-0.8-3.1-1.3
	c-0.9-0.5-1.2-1.6-1.4-2.5c-0.1-0.5-0.1-1-0.2-1.5c3.2-4.3,5.3-11.4,5.3-17.2c0-9.1-5.1-11.6-11.4-11.6c-6.3,0-11.4,2.5-11.4,11.6
	c0,6,2.3,13.4,5.6,17.7c0,0.3-0.1,0.7-0.1,1c-0.2,0.9-0.5,2-1.4,2.5c-1,0.6-2,0.9-3.1,1.3c-4.4,1.5-8.9,2.8-12.8,5.4
	c-2,1.3-3.4,3.8-4.1,6c-0.8,2.4-1.1,5.3-1,7.6h28.6h28.6C650.9,1352.2,650.6,1349.3,649.8,1347z"/>
<path class="st1" d="M763.4,1347c-0.8-2.3-2.1-4.6-4.1-5.9c-3.9-2.6-8.4-4-12.8-5.4c-1.1-0.4-2.1-0.8-3.1-1.3
	c-0.9-0.5-1.2-1.6-1.4-2.5c-0.1-0.5-0.1-1-0.2-1.5c3.2-4.3,5.3-11.4,5.3-17.2c0-9.1-5.1-11.6-11.4-11.6c-6.3,0-11.4,2.5-11.4,11.6
	c0,6,2.3,13.4,5.6,17.7c0,0.3-0.1,0.7-0.1,1c-0.2,0.9-0.5,2-1.4,2.5c-1,0.6-2,0.9-3.1,1.3c-4.4,1.5-8.9,2.8-12.8,5.4
	c-2,1.3-3.4,3.8-4.1,6c-0.8,2.4-1.1,5.3-1,7.6h28.6h28.6C764.4,1352.2,764.1,1349.3,763.4,1347z"/>
<path class="st1" d="M876.4,1347.5c-0.8-2.3-2.1-4.6-4.1-5.9c-3.9-2.6-8.4-4-12.8-5.4c-1.1-0.4-2.1-0.8-3.1-1.3
	c-0.9-0.5-1.2-1.6-1.4-2.5c-0.1-0.5-0.1-1-0.2-1.5c3.2-4.3,5.3-11.4,5.3-17.2c0-9.1-5.1-11.6-11.4-11.6c-6.3,0-11.4,2.5-11.4,11.6
	c0,6,2.3,13.4,5.6,17.7c0,0.3-0.1,0.7-0.1,1c-0.2,0.9-0.5,2-1.4,2.5c-1,0.6-2,0.9-3.1,1.3c-4.4,1.5-8.9,2.8-12.8,5.4
	c-2,1.3-3.4,3.8-4.1,6c-0.8,2.4-1.1,5.3-1,7.6h28.6h28.6C877.4,1352.8,877.1,1349.9,876.4,1347.5z"/>
<path class="st1" d="M989.9,1347.5c-0.8-2.3-2.1-4.6-4.1-5.9c-3.9-2.6-8.4-4-12.8-5.4c-1.1-0.4-2.1-0.8-3.1-1.3
	c-0.9-0.5-1.2-1.6-1.4-2.5c-0.1-0.5-0.1-1-0.2-1.5c3.2-4.3,5.3-11.4,5.3-17.2c0-9.1-5.1-11.6-11.4-11.6c-6.3,0-11.4,2.5-11.4,11.6
	c0,6,2.3,13.4,5.6,17.7c0,0.3-0.1,0.7-0.1,1c-0.2,0.9-0.5,2-1.4,2.5c-1,0.6-2,0.9-3.1,1.3c-4.4,1.5-8.9,2.8-12.8,5.4
	c-2,1.3-3.4,3.8-4.1,6c-0.8,2.4-1.1,5.3-1,7.6h28.6H991C991,1352.8,990.7,1349.9,989.9,1347.5z"/>
<path class="st1" d="M200.7,63.1c-0.8-2.3-2.1-4.6-4.1-5.9c-3.9-2.6-8.4-4-12.8-5.4c-1.1-0.4-2.1-0.8-3.1-1.3
	c-0.9-0.5-1.2-1.6-1.4-2.5c-0.1-0.5-0.1-1-0.2-1.5c3.2-4.3,5.3-11.4,5.3-17.2c0-9.1-5.1-11.6-11.4-11.6c-6.3,0-11.4,2.5-11.4,11.6
	c0,6,2.3,13.4,5.6,17.7c0,0.3-0.1,0.7-0.1,1c-0.2,0.9-0.5,2-1.4,2.5c-1,0.6-2,0.9-3.1,1.3c-4.4,1.5-8.9,2.8-12.8,5.4
	c-2,1.3-3.4,3.8-4.1,6c-0.8,2.4-1.1,5.3-1,7.6h28.6h28.6C201.8,68.3,201.5,65.4,200.7,63.1z"/>
<path class="st1" d="M314.4,63.1c-0.8-2.3-2.1-4.6-4.1-5.9c-3.9-2.6-8.4-4-12.8-5.4c-1.1-0.4-2.1-0.8-3.1-1.3
	c-0.9-0.5-1.2-1.6-1.4-2.5c-0.1-0.5-0.1-1-0.2-1.5c3.2-4.3,5.3-11.4,5.3-17.2c0-9.1-5.1-11.6-11.4-11.6c-6.3,0-11.4,2.5-11.4,11.6
	c0,6,2.3,13.4,5.6,17.7c0,0.3-0.1,0.7-0.1,1c-0.2,0.9-0.5,2-1.4,2.5c-1,0.6-2,0.9-3.1,1.3c-4.4,1.5-8.9,2.8-12.8,5.4
	c-2,1.3-3.4,3.8-4.1,6c-0.8,2.4-1.1,5.3-1,7.6h28.6h28.6C315.5,68.3,315.2,65.4,314.4,63.1z"/>
<path class="st1" d="M428.2,63.1c-0.8-2.3-2.1-4.6-4.1-5.9c-3.9-2.6-8.4-4-12.8-5.4c-1.1-0.4-2.1-0.8-3.1-1.3
	c-0.9-0.5-1.2-1.6-1.4-2.5c-0.1-0.5-0.1-1-0.2-1.5c3.2-4.3,5.3-11.4,5.3-17.2c0-9.1-5.1-11.6-11.4-11.6c-6.3,0-11.4,2.5-11.4,11.6
	c0,6,2.3,13.4,5.6,17.7c0,0.3-0.1,0.7-0.1,1c-0.2,0.9-0.5,2-1.4,2.5c-1,0.6-2,0.9-3.1,1.3c-4.4,1.5-8.9,2.8-12.8,5.4
	c-2,1.3-3.4,3.8-4.1,6c-0.8,2.4-1.1,5.3-1,7.6h28.6h28.6C429.3,68.3,429,65.4,428.2,63.1z"/>
<path class="st1" d="M541.9,63.1c-0.8-2.3-2.1-4.6-4.1-5.9c-3.9-2.6-8.4-4-12.8-5.4c-1.1-0.4-2.1-0.8-3.1-1.3
	c-0.9-0.5-1.2-1.6-1.4-2.5c-0.1-0.5-0.1-1-0.2-1.5c3.2-4.3,5.3-11.4,5.3-17.2c0-9.1-5.1-11.6-11.4-11.6c-6.3,0-11.4,2.5-11.4,11.6
	c0,6,2.3,13.4,5.6,17.7c0,0.3-0.1,0.7-0.1,1c-0.2,0.9-0.5,2-1.4,2.5c-1,0.6-2,0.9-3.1,1.3c-4.4,1.5-8.9,2.8-12.8,5.4
	c-2,1.3-3.4,3.8-4.1,6c-0.8,2.4-1.1,5.3-1,7.6h28.6H543C543,68.3,542.7,65.4,541.9,63.1z"/>
<path class="st1" d="M655.7,63.1c-0.8-2.3-2.1-4.6-4.1-5.9c-3.9-2.6-8.4-4-12.8-5.4c-1.1-0.4-2.1-0.8-3.1-1.3
	c-0.9-0.5-1.2-1.6-1.4-2.5c-0.1-0.5-0.1-1-0.2-1.5c3.2-4.3,5.3-11.4,5.3-17.2c0-9.1-5.1-11.6-11.4-11.6c-6.3,0-11.4,2.5-11.4,11.6
	c0,6,2.3,13.4,5.6,17.7c0,0.3-0.1,0.7-0.1,1c-0.2,0.9-0.5,2-1.4,2.5c-1,0.6-2,0.9-3.1,1.3c-4.4,1.5-8.9,2.8-12.8,5.4
	c-2,1.3-3.4,3.8-4.1,6c-0.8,2.4-1.1,5.3-1,7.6h28.6h28.6C656.8,68.3,656.5,65.4,655.7,63.1z"/>
<path class="st1" d="M769.4,63.1c-0.8-2.3-2.1-4.6-4.1-5.9c-3.9-2.6-8.4-4-12.8-5.4c-1.1-0.4-2.1-0.8-3.1-1.3
	c-0.9-0.5-1.2-1.6-1.4-2.5c-0.1-0.5-0.1-1-0.2-1.5c3.2-4.3,5.3-11.4,5.3-17.2c0-9.1-5.1-11.6-11.4-11.6c-6.3,0-11.4,2.5-11.4,11.6
	c0,6,2.3,13.4,5.6,17.7c0,0.3-0.1,0.7-0.1,1c-0.2,0.9-0.5,2-1.4,2.5c-1,0.6-2,0.9-3.1,1.3c-4.4,1.5-8.9,2.8-12.8,5.4
	c-2,1.3-3.4,3.8-4.1,6c-0.8,2.4-1.1,5.3-1,7.6h28.6h28.6C770.5,68.3,770.2,65.4,769.4,63.1z"/>
<path class="st1" d="M86.9,128.5c-0.8-2.3-2.1-4.6-4.1-5.9c-3.9-2.6-8.4-4-12.8-5.4c-1.1-0.4-2.1-0.8-3.1-1.3
	c-0.9-0.5-1.2-1.6-1.4-2.5c-0.1-0.5-0.1-1-0.2-1.5c3.2-4.3,5.3-11.4,5.3-17.2c0-9.1-5.1-11.6-11.4-11.6c-6.3,0-11.4,2.5-11.4,11.6
	c0,6,2.3,13.4,5.6,17.7c0,0.3-0.1,0.7-0.1,1c-0.2,0.9-0.5,2-1.4,2.5c-1,0.6-2,0.9-3.1,1.3c-4.4,1.5-8.9,2.8-12.8,5.4
	c-2,1.3-3.4,3.8-4.1,6c-0.8,2.4-1.1,5.3-1,7.6h28.6H88C88,133.8,87.7,130.8,86.9,128.5z"/>
<path class="st1" d="M200.7,128.5c-0.8-2.3-2.1-4.6-4.1-5.9c-3.9-2.6-8.4-4-12.8-5.4c-1.1-0.4-2.1-0.8-3.1-1.3
	c-0.9-0.5-1.2-1.6-1.4-2.5c-0.1-0.5-0.1-1-0.2-1.5c3.2-4.3,5.3-11.4,5.3-17.2c0-9.1-5.1-11.6-11.4-11.6c-6.3,0-11.4,2.5-11.4,11.6
	c0,6,2.3,13.4,5.6,17.7c0,0.3-0.1,0.7-0.1,1c-0.2,0.9-0.5,2-1.4,2.5c-1,0.6-2,0.9-3.1,1.3c-4.4,1.5-8.9,2.8-12.8,5.4
	c-2,1.3-3.4,3.8-4.1,6c-0.8,2.4-1.1,5.3-1,7.6h28.6h28.6C201.8,133.8,201.5,130.8,200.7,128.5z"/>
<path class="st1" d="M314.4,128.5c-0.8-2.3-2.1-4.6-4.1-5.9c-3.9-2.6-8.4-4-12.8-5.4c-1.1-0.4-2.1-0.8-3.1-1.3
	c-0.9-0.5-1.2-1.6-1.4-2.5c-0.1-0.5-0.1-1-0.2-1.5c3.2-4.3,5.3-11.4,5.3-17.2c0-9.1-5.1-11.6-11.4-11.6c-6.3,0-11.4,2.5-11.4,11.6
	c0,6,2.3,13.4,5.6,17.7c0,0.3-0.1,0.7-0.1,1c-0.2,0.9-0.5,2-1.4,2.5c-1,0.6-2,0.9-3.1,1.3c-4.4,1.5-8.9,2.8-12.8,5.4
	c-2,1.3-3.4,3.8-4.1,6c-0.8,2.4-1.1,5.3-1,7.6h28.6h28.6C315.5,133.8,315.2,130.8,314.4,128.5z"/>
<path class="st1" d="M428.2,128.5c-0.8-2.3-2.1-4.6-4.1-5.9c-3.9-2.6-8.4-4-12.8-5.4c-1.1-0.4-2.1-0.8-3.1-1.3
	c-0.9-0.5-1.2-1.6-1.4-2.5c-0.1-0.5-0.1-1-0.2-1.5c3.2-4.3,5.3-11.4,5.3-17.2c0-9.1-5.1-11.6-11.4-11.6c-6.3,0-11.4,2.5-11.4,11.6
	c0,6,2.3,13.4,5.6,17.7c0,0.3-0.1,0.7-0.1,1c-0.2,0.9-0.5,2-1.4,2.5c-1,0.6-2,0.9-3.1,1.3c-4.4,1.5-8.9,2.8-12.8,5.4
	c-2,1.3-3.4,3.8-4.1,6c-0.8,2.4-1.1,5.3-1,7.6h28.6h28.6C429.3,133.8,429,130.8,428.2,128.5z"/>
<path class="st1" d="M541.9,128.5c-0.8-2.3-2.1-4.6-4.1-5.9c-3.9-2.6-8.4-4-12.8-5.4c-1.1-0.4-2.1-0.8-3.1-1.3
	c-0.9-0.5-1.2-1.6-1.4-2.5c-0.1-0.5-0.1-1-0.2-1.5c3.2-4.3,5.3-11.4,5.3-17.2c0-9.1-5.1-11.6-11.4-11.6c-6.3,0-11.4,2.5-11.4,11.6
	c0,6,2.3,13.4,5.6,17.7c0,0.3-0.1,0.7-0.1,1c-0.2,0.9-0.5,2-1.4,2.5c-1,0.6-2,0.9-3.1,1.3c-4.4,1.5-8.9,2.8-12.8,5.4
	c-2,1.3-3.4,3.8-4.1,6c-0.8,2.4-1.1,5.3-1,7.6h28.6H543C543,133.8,542.7,130.8,541.9,128.5z"/>
<path class="st1" d="M655.7,128.5c-0.8-2.3-2.1-4.6-4.1-5.9c-3.9-2.6-8.4-4-12.8-5.4c-1.1-0.4-2.1-0.8-3.1-1.3
	c-0.9-0.5-1.2-1.6-1.4-2.5c-0.1-0.5-0.1-1-0.2-1.5c3.2-4.3,5.3-11.4,5.3-17.2c0-9.1-5.1-11.6-11.4-11.6c-6.3,0-11.4,2.5-11.4,11.6
	c0,6,2.3,13.4,5.6,17.7c0,0.3-0.1,0.7-0.1,1c-0.2,0.9-0.5,2-1.4,2.5c-1,0.6-2,0.9-3.1,1.3c-4.4,1.5-8.9,2.8-12.8,5.4
	c-2,1.3-3.4,3.8-4.1,6c-0.8,2.4-1.1,5.3-1,7.6h28.6h28.6C656.8,133.8,656.5,130.8,655.7,128.5z"/>
<path class="st1" d="M769.4,128.5c-0.8-2.3-2.1-4.6-4.1-5.9c-3.9-2.6-8.4-4-12.8-5.4c-1.1-0.4-2.1-0.8-3.1-1.3
	c-0.9-0.5-1.2-1.6-1.4-2.5c-0.1-0.5-0.1-1-0.2-1.5c3.2-4.3,5.3-11.4,5.3-17.2c0-9.1-5.1-11.6-11.4-11.6c-6.3,0-11.4,2.5-11.4,11.6
	c0,6,2.3,13.4,5.6,17.7c0,0.3-0.1,0.7-0.1,1c-0.2,0.9-0.5,2-1.4,2.5c-1,0.6-2,0.9-3.1,1.3c-4.4,1.5-8.9,2.8-12.8,5.4
	c-2,1.3-3.4,3.8-4.1,6c-0.8,2.4-1.1,5.3-1,7.6h28.6h28.6C770.5,133.8,770.2,130.8,769.4,128.5z"/>
<path class="st1" d="M86.9,193.9c-0.8-2.3-2.1-4.6-4.1-5.9c-3.9-2.6-8.4-4-12.8-5.4c-1.1-0.4-2.1-0.8-3.1-1.3
	c-0.9-0.5-1.2-1.6-1.4-2.5c-0.1-0.5-0.1-1-0.2-1.5c3.2-4.3,5.3-11.4,5.3-17.2c0-9.1-5.1-11.6-11.4-11.6c-6.3,0-11.4,2.5-11.4,11.6
	c0,6,2.3,13.4,5.6,17.7c0,0.3-0.1,0.7-0.1,1c-0.2,0.9-0.5,2-1.4,2.5c-1,0.6-2,0.9-3.1,1.3c-4.4,1.5-8.9,2.8-12.8,5.4
	c-2,1.3-3.4,3.8-4.1,6c-0.8,2.4-1.1,5.3-1,7.6h28.6H88C88,199.2,87.7,196.2,86.9,193.9z"/>
<path class="st1" d="M200.7,193.9c-0.8-2.3-2.1-4.6-4.1-5.9c-3.9-2.6-8.4-4-12.8-5.4c-1.1-0.4-2.1-0.8-3.1-1.3
	c-0.9-0.5-1.2-1.6-1.4-2.5c-0.1-0.5-0.1-1-0.2-1.5c3.2-4.3,5.3-11.4,5.3-17.2c0-9.1-5.1-11.6-11.4-11.6c-6.3,0-11.4,2.5-11.4,11.6
	c0,6,2.3,13.4,5.6,17.7c0,0.3-0.1,0.7-0.1,1c-0.2,0.9-0.5,2-1.4,2.5c-1,0.6-2,0.9-3.1,1.3c-4.4,1.5-8.9,2.8-12.8,5.4
	c-2,1.3-3.4,3.8-4.1,6c-0.8,2.4-1.1,5.3-1,7.6h28.6h28.6C201.8,199.2,201.5,196.2,200.7,193.9z"/>
<path class="st1" d="M314.4,193.9c-0.8-2.3-2.1-4.6-4.1-5.9c-3.9-2.6-8.4-4-12.8-5.4c-1.1-0.4-2.1-0.8-3.1-1.3
	c-0.9-0.5-1.2-1.6-1.4-2.5c-0.1-0.5-0.1-1-0.2-1.5c3.2-4.3,5.3-11.4,5.3-17.2c0-9.1-5.1-11.6-11.4-11.6c-6.3,0-11.4,2.5-11.4,11.6
	c0,6,2.3,13.4,5.6,17.7c0,0.3-0.1,0.7-0.1,1c-0.2,0.9-0.5,2-1.4,2.5c-1,0.6-2,0.9-3.1,1.3c-4.4,1.5-8.9,2.8-12.8,5.4
	c-2,1.3-3.4,3.8-4.1,6c-0.8,2.4-1.1,5.3-1,7.6h28.6h28.6C315.5,199.2,315.2,196.2,314.4,193.9z"/>
<path class="st1" d="M428.2,193.9c-0.8-2.3-2.1-4.6-4.1-5.9c-3.9-2.6-8.4-4-12.8-5.4c-1.1-0.4-2.1-0.8-3.1-1.3
	c-0.9-0.5-1.2-1.6-1.4-2.5c-0.1-0.5-0.1-1-0.2-1.5c3.2-4.3,5.3-11.4,5.3-17.2c0-9.1-5.1-11.6-11.4-11.6c-6.3,0-11.4,2.5-11.4,11.6
	c0,6,2.3,13.4,5.6,17.7c0,0.3-0.1,0.7-0.1,1c-0.2,0.9-0.5,2-1.4,2.5c-1,0.6-2,0.9-3.1,1.3c-4.4,1.5-8.9,2.8-12.8,5.4
	c-2,1.3-3.4,3.8-4.1,6c-0.8,2.4-1.1,5.3-1,7.6h28.6h28.6C429.3,199.2,429,196.2,428.2,193.9z"/>
<path class="st1" d="M541.9,193.9c-0.8-2.3-2.1-4.6-4.1-5.9c-3.9-2.6-8.4-4-12.8-5.4c-1.1-0.4-2.1-0.8-3.1-1.3
	c-0.9-0.5-1.2-1.6-1.4-2.5c-0.1-0.5-0.1-1-0.2-1.5c3.2-4.3,5.3-11.4,5.3-17.2c0-9.1-5.1-11.6-11.4-11.6c-6.3,0-11.4,2.5-11.4,11.6
	c0,6,2.3,13.4,5.6,17.7c0,0.3-0.1,0.7-0.1,1c-0.2,0.9-0.5,2-1.4,2.5c-1,0.6-2,0.9-3.1,1.3c-4.4,1.5-8.9,2.8-12.8,5.4
	c-2,1.3-3.4,3.8-4.1,6c-0.8,2.4-1.1,5.3-1,7.6h28.6H543C543,199.2,542.7,196.2,541.9,193.9z"/>
<path class="st1" d="M655.7,193.9c-0.8-2.3-2.1-4.6-4.1-5.9c-3.9-2.6-8.4-4-12.8-5.4c-1.1-0.4-2.1-0.8-3.1-1.3
	c-0.9-0.5-1.2-1.6-1.4-2.5c-0.1-0.5-0.1-1-0.2-1.5c3.2-4.3,5.3-11.4,5.3-17.2c0-9.1-5.1-11.6-11.4-11.6c-6.3,0-11.4,2.5-11.4,11.6
	c0,6,2.3,13.4,5.6,17.7c0,0.3-0.1,0.7-0.1,1c-0.2,0.9-0.5,2-1.4,2.5c-1,0.6-2,0.9-3.1,1.3c-4.4,1.5-8.9,2.8-12.8,5.4
	c-2,1.3-3.4,3.8-4.1,6c-0.8,2.4-1.1,5.3-1,7.6h28.6h28.6C656.8,199.2,656.5,196.2,655.7,193.9z"/>
<path class="st1" d="M769.4,193.9c-0.8-2.3-2.1-4.6-4.1-5.9c-3.9-2.6-8.4-4-12.8-5.4c-1.1-0.4-2.1-0.8-3.1-1.3
	c-0.9-0.5-1.2-1.6-1.4-2.5c-0.1-0.5-0.1-1-0.2-1.5c3.2-4.3,5.3-11.4,5.3-17.2c0-9.1-5.1-11.6-11.4-11.6c-6.3,0-11.4,2.5-11.4,11.6
	c0,6,2.3,13.4,5.6,17.7c0,0.3-0.1,0.7-0.1,1c-0.2,0.9-0.5,2-1.4,2.5c-1,0.6-2,0.9-3.1,1.3c-4.4,1.5-8.9,2.8-12.8,5.4
	c-2,1.3-3.4,3.8-4.1,6c-0.8,2.4-1.1,5.3-1,7.6h28.6h28.6C770.5,199.2,770.2,196.2,769.4,193.9z"/>
<path class="st1" d="M86.9,259.3c-0.8-2.3-2.1-4.6-4.1-5.9c-3.9-2.6-8.4-4-12.8-5.4c-1.1-0.4-2.1-0.8-3.1-1.3
	c-0.9-0.5-1.2-1.6-1.4-2.5c-0.1-0.5-0.1-1-0.2-1.5c3.2-4.3,5.3-11.4,5.3-17.2c0-9.1-5.1-11.6-11.4-11.6c-6.3,0-11.4,2.5-11.4,11.6
	c0,6,2.3,13.4,5.6,17.7c0,0.3-0.1,0.7-0.1,1c-0.2,0.9-0.5,2-1.4,2.5c-1,0.6-2,0.9-3.1,1.3c-4.4,1.5-8.9,2.8-12.8,5.4
	c-2,1.3-3.4,3.8-4.1,6c-0.8,2.4-1.1,5.3-1,7.6h28.6H88C88,264.6,87.7,261.6,86.9,259.3z"/>
<path class="st1" d="M200.7,259.3c-0.8-2.3-2.1-4.6-4.1-5.9c-3.9-2.6-8.4-4-12.8-5.4c-1.1-0.4-2.1-0.8-3.1-1.3
	c-0.9-0.5-1.2-1.6-1.4-2.5c-0.1-0.5-0.1-1-0.2-1.5c3.2-4.3,5.3-11.4,5.3-17.2c0-9.1-5.1-11.6-11.4-11.6c-6.3,0-11.4,2.5-11.4,11.6
	c0,6,2.3,13.4,5.6,17.7c0,0.3-0.1,0.7-0.1,1c-0.2,0.9-0.5,2-1.4,2.5c-1,0.6-2,0.9-3.1,1.3c-4.4,1.5-8.9,2.8-12.8,5.4
	c-2,1.3-3.4,3.8-4.1,6c-0.8,2.4-1.1,5.3-1,7.6h28.6h28.6C201.8,264.6,201.5,261.6,200.7,259.3z"/>
<path class="st1" d="M314.4,259.3c-0.8-2.3-2.1-4.6-4.1-5.9c-3.9-2.6-8.4-4-12.8-5.4c-1.1-0.4-2.1-0.8-3.1-1.3
	c-0.9-0.5-1.2-1.6-1.4-2.5c-0.1-0.5-0.1-1-0.2-1.5c3.2-4.3,5.3-11.4,5.3-17.2c0-9.1-5.1-11.6-11.4-11.6c-6.3,0-11.4,2.5-11.4,11.6
	c0,6,2.3,13.4,5.6,17.7c0,0.3-0.1,0.7-0.1,1c-0.2,0.9-0.5,2-1.4,2.5c-1,0.6-2,0.9-3.1,1.3c-4.4,1.5-8.9,2.8-12.8,5.4
	c-2,1.3-3.4,3.8-4.1,6c-0.8,2.4-1.1,5.3-1,7.6h28.6h28.6C315.5,264.6,315.2,261.6,314.4,259.3z"/>
<path class="st1" d="M428.2,259.3c-0.8-2.3-2.1-4.6-4.1-5.9c-3.9-2.6-8.4-4-12.8-5.4c-1.1-0.4-2.1-0.8-3.1-1.3
	c-0.9-0.5-1.2-1.6-1.4-2.5c-0.1-0.5-0.1-1-0.2-1.5c3.2-4.3,5.3-11.4,5.3-17.2c0-9.1-5.1-11.6-11.4-11.6c-6.3,0-11.4,2.5-11.4,11.6
	c0,6,2.3,13.4,5.6,17.7c0,0.3-0.1,0.7-0.1,1c-0.2,0.9-0.5,2-1.4,2.5c-1,0.6-2,0.9-3.1,1.3c-4.4,1.5-8.9,2.8-12.8,5.4
	c-2,1.3-3.4,3.8-4.1,6c-0.8,2.4-1.1,5.3-1,7.6h28.6h28.6C429.3,264.6,429,261.6,428.2,259.3z"/>
<path class="st1" d="M541.9,259.3c-0.8-2.3-2.1-4.6-4.1-5.9c-3.9-2.6-8.4-4-12.8-5.4c-1.1-0.4-2.1-0.8-3.1-1.3
	c-0.9-0.5-1.2-1.6-1.4-2.5c-0.1-0.5-0.1-1-0.2-1.5c3.2-4.3,5.3-11.4,5.3-17.2c0-9.1-5.1-11.6-11.4-11.6c-6.3,0-11.4,2.5-11.4,11.6
	c0,6,2.3,13.4,5.6,17.7c0,0.3-0.1,0.7-0.1,1c-0.2,0.9-0.5,2-1.4,2.5c-1,0.6-2,0.9-3.1,1.3c-4.4,1.5-8.9,2.8-12.8,5.4
	c-2,1.3-3.4,3.8-4.1,6c-0.8,2.4-1.1,5.3-1,7.6h28.6H543C543,264.6,542.7,261.6,541.9,259.3z"/>
<path class="st1" d="M655.7,259.3c-0.8-2.3-2.1-4.6-4.1-5.9c-3.9-2.6-8.4-4-12.8-5.4c-1.1-0.4-2.1-0.8-3.1-1.3
	c-0.9-0.5-1.2-1.6-1.4-2.5c-0.1-0.5-0.1-1-0.2-1.5c3.2-4.3,5.3-11.4,5.3-17.2c0-9.1-5.1-11.6-11.4-11.6c-6.3,0-11.4,2.5-11.4,11.6
	c0,6,2.3,13.4,5.6,17.7c0,0.3-0.1,0.7-0.1,1c-0.2,0.9-0.5,2-1.4,2.5c-1,0.6-2,0.9-3.1,1.3c-4.4,1.5-8.9,2.8-12.8,5.4
	c-2,1.3-3.4,3.8-4.1,6c-0.8,2.4-1.1,5.3-1,7.6h28.6h28.6C656.8,264.6,656.5,261.6,655.7,259.3z"/>
<path class="st1" d="M769.4,259.3c-0.8-2.3-2.1-4.6-4.1-5.9c-3.9-2.6-8.4-4-12.8-5.4c-1.1-0.4-2.1-0.8-3.1-1.3
	c-0.9-0.5-1.2-1.6-1.4-2.5c-0.1-0.5-0.1-1-0.2-1.5c3.2-4.3,5.3-11.4,5.3-17.2c0-9.1-5.1-11.6-11.4-11.6c-6.3,0-11.4,2.5-11.4,11.6
	c0,6,2.3,13.4,5.6,17.7c0,0.3-0.1,0.7-0.1,1c-0.2,0.9-0.5,2-1.4,2.5c-1,0.6-2,0.9-3.1,1.3c-4.4,1.5-8.9,2.8-12.8,5.4
	c-2,1.3-3.4,3.8-4.1,6c-0.8,2.4-1.1,5.3-1,7.6h28.6h28.6C770.5,264.6,770.2,261.6,769.4,259.3z"/>
<path class="st1" d="M86.9,325.6c-0.8-2.3-2.1-4.6-4.1-5.9c-3.9-2.6-8.4-4-12.8-5.4c-1.1-0.4-2.1-0.8-3.1-1.3
	c-0.9-0.5-1.2-1.6-1.4-2.5c-0.1-0.5-0.1-1-0.2-1.5c3.2-4.3,5.3-11.4,5.3-17.2c0-9.1-5.1-11.6-11.4-11.6c-6.3,0-11.4,2.5-11.4,11.6
	c0,6,2.3,13.4,5.6,17.7c0,0.3-0.1,0.7-0.1,1c-0.2,0.9-0.5,2-1.4,2.5c-1,0.6-2,0.9-3.1,1.3c-4.4,1.5-8.9,2.8-12.8,5.4
	c-2,1.3-3.4,3.8-4.1,6c-0.8,2.4-1.1,5.3-1,7.6h28.6H88C88,330.9,87.7,328,86.9,325.6z"/>
<path class="st1" d="M200.7,325.6c-0.8-2.3-2.1-4.6-4.1-5.9c-3.9-2.6-8.4-4-12.8-5.4c-1.1-0.4-2.1-0.8-3.1-1.3
	c-0.9-0.5-1.2-1.6-1.4-2.5c-0.1-0.5-0.1-1-0.2-1.5c3.2-4.3,5.3-11.4,5.3-17.2c0-9.1-5.1-11.6-11.4-11.6c-6.3,0-11.4,2.5-11.4,11.6
	c0,6,2.3,13.4,5.6,17.7c0,0.3-0.1,0.7-0.1,1c-0.2,0.9-0.5,2-1.4,2.5c-1,0.6-2,0.9-3.1,1.3c-4.4,1.5-8.9,2.8-12.8,5.4
	c-2,1.3-3.4,3.8-4.1,6c-0.8,2.4-1.1,5.3-1,7.6h28.6h28.6C201.8,330.9,201.5,328,200.7,325.6z"/>
<path class="st1" d="M314.4,325.6c-0.8-2.3-2.1-4.6-4.1-5.9c-3.9-2.6-8.4-4-12.8-5.4c-1.1-0.4-2.1-0.8-3.1-1.3
	c-0.9-0.5-1.2-1.6-1.4-2.5c-0.1-0.5-0.1-1-0.2-1.5c3.2-4.3,5.3-11.4,5.3-17.2c0-9.1-5.1-11.6-11.4-11.6c-6.3,0-11.4,2.5-11.4,11.6
	c0,6,2.3,13.4,5.6,17.7c0,0.3-0.1,0.7-0.1,1c-0.2,0.9-0.5,2-1.4,2.5c-1,0.6-2,0.9-3.1,1.3c-4.4,1.5-8.9,2.8-12.8,5.4
	c-2,1.3-3.4,3.8-4.1,6c-0.8,2.4-1.1,5.3-1,7.6h28.6h28.6C315.5,330.9,315.2,328,314.4,325.6z"/>
<path class="st1" d="M428.2,325.6c-0.8-2.3-2.1-4.6-4.1-5.9c-3.9-2.6-8.4-4-12.8-5.4c-1.1-0.4-2.1-0.8-3.1-1.3
	c-0.9-0.5-1.2-1.6-1.4-2.5c-0.1-0.5-0.1-1-0.2-1.5c3.2-4.3,5.3-11.4,5.3-17.2c0-9.1-5.1-11.6-11.4-11.6c-6.3,0-11.4,2.5-11.4,11.6
	c0,6,2.3,13.4,5.6,17.7c0,0.3-0.1,0.7-0.1,1c-0.2,0.9-0.5,2-1.4,2.5c-1,0.6-2,0.9-3.1,1.3c-4.4,1.5-8.9,2.8-12.8,5.4
	c-2,1.3-3.4,3.8-4.1,6c-0.8,2.4-1.1,5.3-1,7.6h28.6h28.6C429.3,330.9,429,328,428.2,325.6z"/>
<path class="st1" d="M541.9,325.6c-0.8-2.3-2.1-4.6-4.1-5.9c-3.9-2.6-8.4-4-12.8-5.4c-1.1-0.4-2.1-0.8-3.1-1.3
	c-0.9-0.5-1.2-1.6-1.4-2.5c-0.1-0.5-0.1-1-0.2-1.5c3.2-4.3,5.3-11.4,5.3-17.2c0-9.1-5.1-11.6-11.4-11.6c-6.3,0-11.4,2.5-11.4,11.6
	c0,6,2.3,13.4,5.6,17.7c0,0.3-0.1,0.7-0.1,1c-0.2,0.9-0.5,2-1.4,2.5c-1,0.6-2,0.9-3.1,1.3c-4.4,1.5-8.9,2.8-12.8,5.4
	c-2,1.3-3.4,3.8-4.1,6c-0.8,2.4-1.1,5.3-1,7.6h28.6H543C543,330.9,542.7,328,541.9,325.6z"/>
<path class="st1" d="M655.7,325.6c-0.8-2.3-2.1-4.6-4.1-5.9c-3.9-2.6-8.4-4-12.8-5.4c-1.1-0.4-2.1-0.8-3.1-1.3
	c-0.9-0.5-1.2-1.6-1.4-2.5c-0.1-0.5-0.1-1-0.2-1.5c3.2-4.3,5.3-11.4,5.3-17.2c0-9.1-5.1-11.6-11.4-11.6c-6.3,0-11.4,2.5-11.4,11.6
	c0,6,2.3,13.4,5.6,17.7c0,0.3-0.1,0.7-0.1,1c-0.2,0.9-0.5,2-1.4,2.5c-1,0.6-2,0.9-3.1,1.3c-4.4,1.5-8.9,2.8-12.8,5.4
	c-2,1.3-3.4,3.8-4.1,6c-0.8,2.4-1.1,5.3-1,7.6h28.6h28.6C656.8,330.9,656.5,328,655.7,325.6z"/>
<path class="st1" d="M769.4,325.6c-0.8-2.3-2.1-4.6-4.1-5.9c-3.9-2.6-8.4-4-12.8-5.4c-1.1-0.4-2.1-0.8-3.1-1.3
	c-0.9-0.5-1.2-1.6-1.4-2.5c-0.1-0.5-0.1-1-0.2-1.5c3.2-4.3,5.3-11.4,5.3-17.2c0-9.1-5.1-11.6-11.4-11.6c-6.3,0-11.4,2.5-11.4,11.6
	c0,6,2.3,13.4,5.6,17.7c0,0.3-0.1,0.7-0.1,1c-0.2,0.9-0.5,2-1.4,2.5c-1,0.6-2,0.9-3.1,1.3c-4.4,1.5-8.9,2.8-12.8,5.4
	c-2,1.3-3.4,3.8-4.1,6c-0.8,2.4-1.1,5.3-1,7.6h28.6h28.6C770.5,330.9,770.2,328,769.4,325.6z"/>
<path class="st1" d="M86.9,391c-0.8-2.3-2.1-4.6-4.1-5.9c-3.9-2.6-8.4-4-12.8-5.4c-1.1-0.4-2.1-0.8-3.1-1.3
	c-0.9-0.5-1.2-1.6-1.4-2.5c-0.1-0.5-0.1-1-0.2-1.5c3.2-4.3,5.3-11.4,5.3-17.2c0-9.1-5.1-11.6-11.4-11.6c-6.3,0-11.4,2.5-11.4,11.6
	c0,6,2.3,13.4,5.6,17.7c0,0.3-0.1,0.7-0.1,1c-0.2,0.9-0.5,2-1.4,2.5c-1,0.6-2,0.9-3.1,1.3c-4.4,1.5-8.9,2.8-12.8,5.4
	c-2,1.3-3.4,3.8-4.1,6c-0.8,2.4-1.1,5.3-1,7.6h28.6H88C88,396.3,87.7,393.4,86.9,391z"/>
<path class="st1" d="M200.7,391c-0.8-2.3-2.1-4.6-4.1-5.9c-3.9-2.6-8.4-4-12.8-5.4c-1.1-0.4-2.1-0.8-3.1-1.3
	c-0.9-0.5-1.2-1.6-1.4-2.5c-0.1-0.5-0.1-1-0.2-1.5c3.2-4.3,5.3-11.4,5.3-17.2c0-9.1-5.1-11.6-11.4-11.6c-6.3,0-11.4,2.5-11.4,11.6
	c0,6,2.3,13.4,5.6,17.7c0,0.3-0.1,0.7-0.1,1c-0.2,0.9-0.5,2-1.4,2.5c-1,0.6-2,0.9-3.1,1.3c-4.4,1.5-8.9,2.8-12.8,5.4
	c-2,1.3-3.4,3.8-4.1,6c-0.8,2.4-1.1,5.3-1,7.6h28.6h28.6C201.8,396.3,201.5,393.4,200.7,391z"/>
<path class="st1" d="M314.4,391c-0.8-2.3-2.1-4.6-4.1-5.9c-3.9-2.6-8.4-4-12.8-5.4c-1.1-0.4-2.1-0.8-3.1-1.3
	c-0.9-0.5-1.2-1.6-1.4-2.5c-0.1-0.5-0.1-1-0.2-1.5c3.2-4.3,5.3-11.4,5.3-17.2c0-9.1-5.1-11.6-11.4-11.6c-6.3,0-11.4,2.5-11.4,11.6
	c0,6,2.3,13.4,5.6,17.7c0,0.3-0.1,0.7-0.1,1c-0.2,0.9-0.5,2-1.4,2.5c-1,0.6-2,0.9-3.1,1.3c-4.4,1.5-8.9,2.8-12.8,5.4
	c-2,1.3-3.4,3.8-4.1,6c-0.8,2.4-1.1,5.3-1,7.6h28.6h28.6C315.5,396.3,315.2,393.4,314.4,391z"/>
<path class="st1" d="M428.2,391c-0.8-2.3-2.1-4.6-4.1-5.9c-3.9-2.6-8.4-4-12.8-5.4c-1.1-0.4-2.1-0.8-3.1-1.3
	c-0.9-0.5-1.2-1.6-1.4-2.5c-0.1-0.5-0.1-1-0.2-1.5c3.2-4.3,5.3-11.4,5.3-17.2c0-9.1-5.1-11.6-11.4-11.6c-6.3,0-11.4,2.5-11.4,11.6
	c0,6,2.3,13.4,5.6,17.7c0,0.3-0.1,0.7-0.1,1c-0.2,0.9-0.5,2-1.4,2.5c-1,0.6-2,0.9-3.1,1.3c-4.4,1.5-8.9,2.8-12.8,5.4
	c-2,1.3-3.4,3.8-4.1,6c-0.8,2.4-1.1,5.3-1,7.6h28.6h28.6C429.3,396.3,429,393.4,428.2,391z"/>
<path class="st1" d="M541.9,391c-0.8-2.3-2.1-4.6-4.1-5.9c-3.9-2.6-8.4-4-12.8-5.4c-1.1-0.4-2.1-0.8-3.1-1.3
	c-0.9-0.5-1.2-1.6-1.4-2.5c-0.1-0.5-0.1-1-0.2-1.5c3.2-4.3,5.3-11.4,5.3-17.2c0-9.1-5.1-11.6-11.4-11.6c-6.3,0-11.4,2.5-11.4,11.6
	c0,6,2.3,13.4,5.6,17.7c0,0.3-0.1,0.7-0.1,1c-0.2,0.9-0.5,2-1.4,2.5c-1,0.6-2,0.9-3.1,1.3c-4.4,1.5-8.9,2.8-12.8,5.4
	c-2,1.3-3.4,3.8-4.1,6c-0.8,2.4-1.1,5.3-1,7.6h28.6H543C543,396.3,542.7,393.4,541.9,391z"/>
<path class="st1" d="M655.7,391c-0.8-2.3-2.1-4.6-4.1-5.9c-3.9-2.6-8.4-4-12.8-5.4c-1.1-0.4-2.1-0.8-3.1-1.3
	c-0.9-0.5-1.2-1.6-1.4-2.5c-0.1-0.5-0.1-1-0.2-1.5c3.2-4.3,5.3-11.4,5.3-17.2c0-9.1-5.1-11.6-11.4-11.6c-6.3,0-11.4,2.5-11.4,11.6
	c0,6,2.3,13.4,5.6,17.7c0,0.3-0.1,0.7-0.1,1c-0.2,0.9-0.5,2-1.4,2.5c-1,0.6-2,0.9-3.1,1.3c-4.4,1.5-8.9,2.8-12.8,5.4
	c-2,1.3-3.4,3.8-4.1,6c-0.8,2.4-1.1,5.3-1,7.6h28.6h28.6C656.8,396.3,656.5,393.4,655.7,391z"/>
<path class="st1" d="M769.4,391c-0.8-2.3-2.1-4.6-4.1-5.9c-3.9-2.6-8.4-4-12.8-5.4c-1.1-0.4-2.1-0.8-3.1-1.3
	c-0.9-0.5-1.2-1.6-1.4-2.5c-0.1-0.5-0.1-1-0.2-1.5c3.2-4.3,5.3-11.4,5.3-17.2c0-9.1-5.1-11.6-11.4-11.6c-6.3,0-11.4,2.5-11.4,11.6
	c0,6,2.3,13.4,5.6,17.7c0,0.3-0.1,0.7-0.1,1c-0.2,0.9-0.5,2-1.4,2.5c-1,0.6-2,0.9-3.1,1.3c-4.4,1.5-8.9,2.8-12.8,5.4
	c-2,1.3-3.4,3.8-4.1,6c-0.8,2.4-1.1,5.3-1,7.6h28.6h28.6C770.5,396.3,770.2,393.4,769.4,391z"/>
<path class="st1" d="M86.9,456.4c-0.8-2.3-2.1-4.6-4.1-5.9c-3.9-2.6-8.4-4-12.8-5.4c-1.1-0.4-2.1-0.8-3.1-1.3
	c-0.9-0.5-1.2-1.6-1.4-2.5c-0.1-0.5-0.1-1-0.2-1.5c3.2-4.3,5.3-11.4,5.3-17.2c0-9.1-5.1-11.6-11.4-11.6c-6.3,0-11.4,2.5-11.4,11.6
	c0,6,2.3,13.4,5.6,17.7c0,0.3-0.1,0.7-0.1,1c-0.2,0.9-0.5,2-1.4,2.5c-1,0.6-2,0.9-3.1,1.3c-4.4,1.5-8.9,2.8-12.8,5.4
	c-2,1.3-3.4,3.8-4.1,6c-0.8,2.4-1.1,5.3-1,7.6h28.6H88C88,461.7,87.7,458.8,86.9,456.4z"/>
<path class="st1" d="M200.7,456.4c-0.8-2.3-2.1-4.6-4.1-5.9c-3.9-2.6-8.4-4-12.8-5.4c-1.1-0.4-2.1-0.8-3.1-1.3
	c-0.9-0.5-1.2-1.6-1.4-2.5c-0.1-0.5-0.1-1-0.2-1.5c3.2-4.3,5.3-11.4,5.3-17.2c0-9.1-5.1-11.6-11.4-11.6c-6.3,0-11.4,2.5-11.4,11.6
	c0,6,2.3,13.4,5.6,17.7c0,0.3-0.1,0.7-0.1,1c-0.2,0.9-0.5,2-1.4,2.5c-1,0.6-2,0.9-3.1,1.3c-4.4,1.5-8.9,2.8-12.8,5.4
	c-2,1.3-3.4,3.8-4.1,6c-0.8,2.4-1.1,5.3-1,7.6h28.6h28.6C201.8,461.7,201.5,458.8,200.7,456.4z"/>
<path class="st1" d="M314.4,456.4c-0.8-2.3-2.1-4.6-4.1-5.9c-3.9-2.6-8.4-4-12.8-5.4c-1.1-0.4-2.1-0.8-3.1-1.3
	c-0.9-0.5-1.2-1.6-1.4-2.5c-0.1-0.5-0.1-1-0.2-1.5c3.2-4.3,5.3-11.4,5.3-17.2c0-9.1-5.1-11.6-11.4-11.6c-6.3,0-11.4,2.5-11.4,11.6
	c0,6,2.3,13.4,5.6,17.7c0,0.3-0.1,0.7-0.1,1c-0.2,0.9-0.5,2-1.4,2.5c-1,0.6-2,0.9-3.1,1.3c-4.4,1.5-8.9,2.8-12.8,5.4
	c-2,1.3-3.4,3.8-4.1,6c-0.8,2.4-1.1,5.3-1,7.6h28.6h28.6C315.5,461.7,315.2,458.8,314.4,456.4z"/>
<path class="st1" d="M428.2,456.4c-0.8-2.3-2.1-4.6-4.1-5.9c-3.9-2.6-8.4-4-12.8-5.4c-1.1-0.4-2.1-0.8-3.1-1.3
	c-0.9-0.5-1.2-1.6-1.4-2.5c-0.1-0.5-0.1-1-0.2-1.5c3.2-4.3,5.3-11.4,5.3-17.2c0-9.1-5.1-11.6-11.4-11.6c-6.3,0-11.4,2.5-11.4,11.6
	c0,6,2.3,13.4,5.6,17.7c0,0.3-0.1,0.7-0.1,1c-0.2,0.9-0.5,2-1.4,2.5c-1,0.6-2,0.9-3.1,1.3c-4.4,1.5-8.9,2.8-12.8,5.4
	c-2,1.3-3.4,3.8-4.1,6c-0.8,2.4-1.1,5.3-1,7.6h28.6h28.6C429.3,461.7,429,458.8,428.2,456.4z"/>
<path class="st1" d="M541.9,456.4c-0.8-2.3-2.1-4.6-4.1-5.9c-3.9-2.6-8.4-4-12.8-5.4c-1.1-0.4-2.1-0.8-3.1-1.3
	c-0.9-0.5-1.2-1.6-1.4-2.5c-0.1-0.5-0.1-1-0.2-1.5c3.2-4.3,5.3-11.4,5.3-17.2c0-9.1-5.1-11.6-11.4-11.6c-6.3,0-11.4,2.5-11.4,11.6
	c0,6,2.3,13.4,5.6,17.7c0,0.3-0.1,0.7-0.1,1c-0.2,0.9-0.5,2-1.4,2.5c-1,0.6-2,0.9-3.1,1.3c-4.4,1.5-8.9,2.8-12.8,5.4
	c-2,1.3-3.4,3.8-4.1,6c-0.8,2.4-1.1,5.3-1,7.6h28.6H543C543,461.7,542.7,458.8,541.9,456.4z"/>
<path class="st1" d="M655.7,456.4c-0.8-2.3-2.1-4.6-4.1-5.9c-3.9-2.6-8.4-4-12.8-5.4c-1.1-0.4-2.1-0.8-3.1-1.3
	c-0.9-0.5-1.2-1.6-1.4-2.5c-0.1-0.5-0.1-1-0.2-1.5c3.2-4.3,5.3-11.4,5.3-17.2c0-9.1-5.1-11.6-11.4-11.6c-6.3,0-11.4,2.5-11.4,11.6
	c0,6,2.3,13.4,5.6,17.7c0,0.3-0.1,0.7-0.1,1c-0.2,0.9-0.5,2-1.4,2.5c-1,0.6-2,0.9-3.1,1.3c-4.4,1.5-8.9,2.8-12.8,5.4
	c-2,1.3-3.4,3.8-4.1,6c-0.8,2.4-1.1,5.3-1,7.6h28.6h28.6C656.8,461.7,656.5,458.8,655.7,456.4z"/>
<path class="st1" d="M769.4,456.4c-0.8-2.3-2.1-4.6-4.1-5.9c-3.9-2.6-8.4-4-12.8-5.4c-1.1-0.4-2.1-0.8-3.1-1.3
	c-0.9-0.5-1.2-1.6-1.4-2.5c-0.1-0.5-0.1-1-0.2-1.5c3.2-4.3,5.3-11.4,5.3-17.2c0-9.1-5.1-11.6-11.4-11.6c-6.3,0-11.4,2.5-11.4,11.6
	c0,6,2.3,13.4,5.6,17.7c0,0.3-0.1,0.7-0.1,1c-0.2,0.9-0.5,2-1.4,2.5c-1,0.6-2,0.9-3.1,1.3c-4.4,1.5-8.9,2.8-12.8,5.4
	c-2,1.3-3.4,3.8-4.1,6c-0.8,2.4-1.1,5.3-1,7.6h28.6h28.6C770.5,461.7,770.2,458.8,769.4,456.4z"/>
<path class="st1" d="M86.9,521.8c-0.8-2.3-2.1-4.6-4.1-5.9c-3.9-2.6-8.4-4-12.8-5.4c-1.1-0.4-2.1-0.8-3.1-1.3
	c-0.9-0.5-1.2-1.6-1.4-2.5c-0.1-0.5-0.1-1-0.2-1.5c3.2-4.3,5.3-11.4,5.3-17.2c0-9.1-5.1-11.6-11.4-11.6c-6.3,0-11.4,2.5-11.4,11.6
	c0,6,2.3,13.4,5.6,17.7c0,0.3-0.1,0.7-0.1,1c-0.2,0.9-0.5,2-1.4,2.5c-1,0.6-2,0.9-3.1,1.3c-4.4,1.5-8.9,2.8-12.8,5.4
	c-2,1.3-3.4,3.8-4.1,6c-0.8,2.4-1.1,5.3-1,7.6h28.6H88C88,527.1,87.7,524.2,86.9,521.8z"/>
<path class="st1" d="M200.7,521.8c-0.8-2.3-2.1-4.6-4.1-5.9c-3.9-2.6-8.4-4-12.8-5.4c-1.1-0.4-2.1-0.8-3.1-1.3
	c-0.9-0.5-1.2-1.6-1.4-2.5c-0.1-0.5-0.1-1-0.2-1.5c3.2-4.3,5.3-11.4,5.3-17.2c0-9.1-5.1-11.6-11.4-11.6c-6.3,0-11.4,2.5-11.4,11.6
	c0,6,2.3,13.4,5.6,17.7c0,0.3-0.1,0.7-0.1,1c-0.2,0.9-0.5,2-1.4,2.5c-1,0.6-2,0.9-3.1,1.3c-4.4,1.5-8.9,2.8-12.8,5.4
	c-2,1.3-3.4,3.8-4.1,6c-0.8,2.4-1.1,5.3-1,7.6h28.6h28.6C201.8,527.1,201.5,524.2,200.7,521.8z"/>
<path class="st1" d="M314.4,521.8c-0.8-2.3-2.1-4.6-4.1-5.9c-3.9-2.6-8.4-4-12.8-5.4c-1.1-0.4-2.1-0.8-3.1-1.3
	c-0.9-0.5-1.2-1.6-1.4-2.5c-0.1-0.5-0.1-1-0.2-1.5c3.2-4.3,5.3-11.4,5.3-17.2c0-9.1-5.1-11.6-11.4-11.6c-6.3,0-11.4,2.5-11.4,11.6
	c0,6,2.3,13.4,5.6,17.7c0,0.3-0.1,0.7-0.1,1c-0.2,0.9-0.5,2-1.4,2.5c-1,0.6-2,0.9-3.1,1.3c-4.4,1.5-8.9,2.8-12.8,5.4
	c-2,1.3-3.4,3.8-4.1,6c-0.8,2.4-1.1,5.3-1,7.6h28.6h28.6C315.5,527.1,315.2,524.2,314.4,521.8z"/>
<path class="st1" d="M428.2,521.8c-0.8-2.3-2.1-4.6-4.1-5.9c-3.9-2.6-8.4-4-12.8-5.4c-1.1-0.4-2.1-0.8-3.1-1.3
	c-0.9-0.5-1.2-1.6-1.4-2.5c-0.1-0.5-0.1-1-0.2-1.5c3.2-4.3,5.3-11.4,5.3-17.2c0-9.1-5.1-11.6-11.4-11.6c-6.3,0-11.4,2.5-11.4,11.6
	c0,6,2.3,13.4,5.6,17.7c0,0.3-0.1,0.7-0.1,1c-0.2,0.9-0.5,2-1.4,2.5c-1,0.6-2,0.9-3.1,1.3c-4.4,1.5-8.9,2.8-12.8,5.4
	c-2,1.3-3.4,3.8-4.1,6c-0.8,2.4-1.1,5.3-1,7.6h28.6h28.6C429.3,527.1,429,524.2,428.2,521.8z"/>
<path class="st1" d="M541.9,521.8c-0.8-2.3-2.1-4.6-4.1-5.9c-3.9-2.6-8.4-4-12.8-5.4c-1.1-0.4-2.1-0.8-3.1-1.3
	c-0.9-0.5-1.2-1.6-1.4-2.5c-0.1-0.5-0.1-1-0.2-1.5c3.2-4.3,5.3-11.4,5.3-17.2c0-9.1-5.1-11.6-11.4-11.6c-6.3,0-11.4,2.5-11.4,11.6
	c0,6,2.3,13.4,5.6,17.7c0,0.3-0.1,0.7-0.1,1c-0.2,0.9-0.5,2-1.4,2.5c-1,0.6-2,0.9-3.1,1.3c-4.4,1.5-8.9,2.8-12.8,5.4
	c-2,1.3-3.4,3.8-4.1,6c-0.8,2.4-1.1,5.3-1,7.6h28.6H543C543,527.1,542.7,524.2,541.9,521.8z"/>
<path class="st1" d="M655.7,521.8c-0.8-2.3-2.1-4.6-4.1-5.9c-3.9-2.6-8.4-4-12.8-5.4c-1.1-0.4-2.1-0.8-3.1-1.3
	c-0.9-0.5-1.2-1.6-1.4-2.5c-0.1-0.5-0.1-1-0.2-1.5c3.2-4.3,5.3-11.4,5.3-17.2c0-9.1-5.1-11.6-11.4-11.6c-6.3,0-11.4,2.5-11.4,11.6
	c0,6,2.3,13.4,5.6,17.7c0,0.3-0.1,0.7-0.1,1c-0.2,0.9-0.5,2-1.4,2.5c-1,0.6-2,0.9-3.1,1.3c-4.4,1.5-8.9,2.8-12.8,5.4
	c-2,1.3-3.4,3.8-4.1,6c-0.8,2.4-1.1,5.3-1,7.6h28.6h28.6C656.8,527.1,656.5,524.2,655.7,521.8z"/>
<path class="st1" d="M769.4,521.8c-0.8-2.3-2.1-4.6-4.1-5.9c-3.9-2.6-8.4-4-12.8-5.4c-1.1-0.4-2.1-0.8-3.1-1.3
	c-0.9-0.5-1.2-1.6-1.4-2.5c-0.1-0.5-0.1-1-0.2-1.5c3.2-4.3,5.3-11.4,5.3-17.2c0-9.1-5.1-11.6-11.4-11.6c-6.3,0-11.4,2.5-11.4,11.6
	c0,6,2.3,13.4,5.6,17.7c0,0.3-0.1,0.7-0.1,1c-0.2,0.9-0.5,2-1.4,2.5c-1,0.6-2,0.9-3.1,1.3c-4.4,1.5-8.9,2.8-12.8,5.4
	c-2,1.3-3.4,3.8-4.1,6c-0.8,2.4-1.1,5.3-1,7.6h28.6h28.6C770.5,527.1,770.2,524.2,769.4,521.8z"/>
<path class="st1" d="M86.9,587.4c-0.8-2.3-2.1-4.6-4.1-5.9c-3.9-2.6-8.4-4-12.8-5.4c-1.1-0.4-2.1-0.8-3.1-1.3
	c-0.9-0.5-1.2-1.6-1.4-2.5c-0.1-0.5-0.1-1-0.2-1.5c3.2-4.3,5.3-11.4,5.3-17.2c0-9.1-5.1-11.6-11.4-11.6c-6.3,0-11.4,2.5-11.4,11.6
	c0,6,2.3,13.4,5.6,17.7c0,0.3-0.1,0.7-0.1,1c-0.2,0.9-0.5,2-1.4,2.5c-1,0.6-2,0.9-3.1,1.3c-4.4,1.5-8.9,2.8-12.8,5.4
	c-2,1.3-3.4,3.8-4.1,6c-0.8,2.4-1.1,5.3-1,7.6h28.6H88C88,592.6,87.7,589.7,86.9,587.4z"/>
<path class="st1" d="M200.7,587.4c-0.8-2.3-2.1-4.6-4.1-5.9c-3.9-2.6-8.4-4-12.8-5.4c-1.1-0.4-2.1-0.8-3.1-1.3
	c-0.9-0.5-1.2-1.6-1.4-2.5c-0.1-0.5-0.1-1-0.2-1.5c3.2-4.3,5.3-11.4,5.3-17.2c0-9.1-5.1-11.6-11.4-11.6c-6.3,0-11.4,2.5-11.4,11.6
	c0,6,2.3,13.4,5.6,17.7c0,0.3-0.1,0.7-0.1,1c-0.2,0.9-0.5,2-1.4,2.5c-1,0.6-2,0.9-3.1,1.3c-4.4,1.5-8.9,2.8-12.8,5.4
	c-2,1.3-3.4,3.8-4.1,6c-0.8,2.4-1.1,5.3-1,7.6h28.6h28.6C201.8,592.6,201.5,589.7,200.7,587.4z"/>
<path class="st1" d="M314.4,587.4c-0.8-2.3-2.1-4.6-4.1-5.9c-3.9-2.6-8.4-4-12.8-5.4c-1.1-0.4-2.1-0.8-3.1-1.3
	c-0.9-0.5-1.2-1.6-1.4-2.5c-0.1-0.5-0.1-1-0.2-1.5c3.2-4.3,5.3-11.4,5.3-17.2c0-9.1-5.1-11.6-11.4-11.6c-6.3,0-11.4,2.5-11.4,11.6
	c0,6,2.3,13.4,5.6,17.7c0,0.3-0.1,0.7-0.1,1c-0.2,0.9-0.5,2-1.4,2.5c-1,0.6-2,0.9-3.1,1.3c-4.4,1.5-8.9,2.8-12.8,5.4
	c-2,1.3-3.4,3.8-4.1,6c-0.8,2.4-1.1,5.3-1,7.6h28.6h28.6C315.5,592.6,315.2,589.7,314.4,587.4z"/>
<path class="st1" d="M428.2,587.4c-0.8-2.3-2.1-4.6-4.1-5.9c-3.9-2.6-8.4-4-12.8-5.4c-1.1-0.4-2.1-0.8-3.1-1.3
	c-0.9-0.5-1.2-1.6-1.4-2.5c-0.1-0.5-0.1-1-0.2-1.5c3.2-4.3,5.3-11.4,5.3-17.2c0-9.1-5.1-11.6-11.4-11.6c-6.3,0-11.4,2.5-11.4,11.6
	c0,6,2.3,13.4,5.6,17.7c0,0.3-0.1,0.7-0.1,1c-0.2,0.9-0.5,2-1.4,2.5c-1,0.6-2,0.9-3.1,1.3c-4.4,1.5-8.9,2.8-12.8,5.4
	c-2,1.3-3.4,3.8-4.1,6c-0.8,2.4-1.1,5.3-1,7.6h28.6h28.6C429.3,592.6,429,589.7,428.2,587.4z"/>
<path class="st1" d="M541.9,587.4c-0.8-2.3-2.1-4.6-4.1-5.9c-3.9-2.6-8.4-4-12.8-5.4c-1.1-0.4-2.1-0.8-3.1-1.3
	c-0.9-0.5-1.2-1.6-1.4-2.5c-0.1-0.5-0.1-1-0.2-1.5c3.2-4.3,5.3-11.4,5.3-17.2c0-9.1-5.1-11.6-11.4-11.6c-6.3,0-11.4,2.5-11.4,11.6
	c0,6,2.3,13.4,5.6,17.7c0,0.3-0.1,0.7-0.1,1c-0.2,0.9-0.5,2-1.4,2.5c-1,0.6-2,0.9-3.1,1.3c-4.4,1.5-8.9,2.8-12.8,5.4
	c-2,1.3-3.4,3.8-4.1,6c-0.8,2.4-1.1,5.3-1,7.6h28.6H543C543,592.6,542.7,589.7,541.9,587.4z"/>
<path class="st1" d="M655.7,587.4c-0.8-2.3-2.1-4.6-4.1-5.9c-3.9-2.6-8.4-4-12.8-5.4c-1.1-0.4-2.1-0.8-3.1-1.3
	c-0.9-0.5-1.2-1.6-1.4-2.5c-0.1-0.5-0.1-1-0.2-1.5c3.2-4.3,5.3-11.4,5.3-17.2c0-9.1-5.1-11.6-11.4-11.6c-6.3,0-11.4,2.5-11.4,11.6
	c0,6,2.3,13.4,5.6,17.7c0,0.3-0.1,0.7-0.1,1c-0.2,0.9-0.5,2-1.4,2.5c-1,0.6-2,0.9-3.1,1.3c-4.4,1.5-8.9,2.8-12.8,5.4
	c-2,1.3-3.4,3.8-4.1,6c-0.8,2.4-1.1,5.3-1,7.6h28.6h28.6C656.8,592.6,656.5,589.7,655.7,587.4z"/>
<path class="st1" d="M769.4,587.4c-0.8-2.3-2.1-4.6-4.1-5.9c-3.9-2.6-8.4-4-12.8-5.4c-1.1-0.4-2.1-0.8-3.1-1.3
	c-0.9-0.5-1.2-1.6-1.4-2.5c-0.1-0.5-0.1-1-0.2-1.5c3.2-4.3,5.3-11.4,5.3-17.2c0-9.1-5.1-11.6-11.4-11.6c-6.3,0-11.4,2.5-11.4,11.6
	c0,6,2.3,13.4,5.6,17.7c0,0.3-0.1,0.7-0.1,1c-0.2,0.9-0.5,2-1.4,2.5c-1,0.6-2,0.9-3.1,1.3c-4.4,1.5-8.9,2.8-12.8,5.4
	c-2,1.3-3.4,3.8-4.1,6c-0.8,2.4-1.1,5.3-1,7.6h28.6h28.6C770.5,592.6,770.2,589.7,769.4,587.4z"/>
</svg>
