<?xml version="1.0" encoding="utf-8"?>
<!-- Generator: Adobe Illustrator 19.2.1, SVG Export Plug-In . SVG Version: 6.00 Build 0)  -->
<svg version="1.1" id="Ebene_1" xmlns="http://www.w3.org/2000/svg" xmlns:xlink="http://www.w3.org/1999/xlink" x="0px" y="0px"
	 viewBox="0 0 800 600" style="enable-background:new 0 0 800 600;" xml:space="preserve">
<style type="text/css">
	.st0{fill:none;stroke:#000000;stroke-miterlimit:10;}
	.st1{fill:#020201;}
</style>
<g>
	<polygon class="st0" points="5,5 795,5 793.8,595 3.8,595 	"/>
	<line class="st0" x1="5" y1="529.4" x2="795" y2="529.4"/>
	<line class="st0" x1="5" y1="463.9" x2="795" y2="463.9"/>
	<line class="st0" x1="5" y1="398.3" x2="795" y2="398.3"/>
	<line class="st0" x1="5" y1="332.8" x2="795" y2="332.8"/>
	<line class="st0" x1="5" y1="267.2" x2="795" y2="267.2"/>
	<line class="st0" x1="5" y1="201.7" x2="795" y2="201.7"/>
	<line class="st0" x1="5" y1="136.1" x2="795" y2="136.1"/>
	<line class="st0" x1="5" y1="70.6" x2="795" y2="70.6"/>
	<line class="st0" x1="682.1" y1="5" x2="682.1" y2="595"/>
	<line class="st0" x1="569.3" y1="5" x2="569.3" y2="595"/>
	<line class="st0" x1="456.4" y1="5" x2="456.4" y2="595"/>
	<line class="st0" x1="343.6" y1="5" x2="343.6" y2="595"/>
	<line class="st0" x1="230.7" y1="5" x2="230.7" y2="595"/>
	<line class="st0" x1="117.9" y1="5" x2="117.9" y2="595"/>
</g>
<path class="st1" d="M86.9,63.1c-0.8-2.3-2.1-4.6-4.1-5.9c-3.9-2.6-8.4-4-12.8-5.4c-1.1-0.4-2.1-0.8-3.1-1.3
	c-0.9-0.5-1.2-1.6-1.4-2.5c-0.1-0.5-0.1-1-0.2-1.5c3.2-4.3,5.3-11.4,5.3-17.2c0-9.1-5.1-11.6-11.4-11.6c-6.3,0-11.4,2.5-11.4,11.6
	c0,6,2.3,13.4,5.6,17.7c0,0.3-0.1,0.7-0.1,1c-0.2,0.9-0.5,2-1.4,2.5c-1,0.6-2,0.9-3.1,1.3c-4.4,1.5-8.9,2.8-12.8,5.4
	c-2,1.3-3.4,3.8-4.1,6c-0.8,2.4-1.1,5.3-1,7.6h28.6H88C88,68.3,87.7,65.4,86.9,63.1z"/>
<path class="st1" d="M310.7,1347c-0.8-2.3-2.1-4.6-4.1-5.9c-3.9-2.6-8.4-4-12.8-5.4c-1.1-0.4-2.1-0.8-3.1-1.3
	c-0.9-0.5-1.2-1.6-1.4-2.5c-0.1-0.5-0.1-1-0.2-1.5c3.2-4.3,5.3-11.4,5.3-17.2c0-9.1-5.1-11.6-11.4-11.6c-6.3,0-11.4,2.5-11.4,11.6
	c0,6,2.3,13.4,5.6,17.7c0,0.3-0.1,0.7-0.1,1c-0.2,0.9-0.5,2-1.4,2.5c-1,0.6-2,0.9-3.1,1.3c-4.4,1.5-8.9,2.8-12.8,5.4
	c-2,1.3-3.4,3.8-4.1,6c-0.8,2.4-1.1,5.3-1,7.6h28.6h28.6C311.8,1352.2,311.5,1349.3,310.7,1347z"/>
<path class="st1" d="M423.7,1347c-0.8-2.3-2.1-4.6-4.1-5.9c-3.9-2.6-8.4-4-12.8-5.4c-1.1-0.4-2.1-0.8-3.1-1.3
	c-0.9-0.5-1.2-1.6-1.4-2.5c-0.1-0.5-0.1-1-0.2-1.5c3.2-4.3,5.3-11.4,5.3-17.2c0-9.1-5.1-11.6-11.4-11.6c-6.3,0-11.4,2.5-11.4,11.6
	c0,6,2.3,13.4,5.6,17.7c0,0.3-0.1,0.7-0.1,1c-0.2,0.9-0.5,2-1.4,2.5c-1,0.6-2,0.9-3.1,1.3c-4.4,1.5-8.9,2.8-12.8,5.4
	c-2,1.3-3.4,3.8-4.1,6c-0.8,2.4-1.1,5.3-1,7.6h28.6h28.6C424.8,1352.2,424.5,1349.3,423.7,1347z"/>
<path class="st1" d="M537.3,1347c-0.8-2.3-2.1-4.6-4.1-5.9c-3.9-2.6-8.4-4-12.8-5.4c-1.1-0.4-2.1-0.8-3.1-1.3
	c-0.9-0.5-1.2-1.6-1.4-2.5c-0.1-0.5-0.1-1-0.2-1.5c3.2-4.3,5.3-11.4,5.3-17.2c0-9.1-5.1-11.6-11.4-11.6c-6.3,0-11.4,2.5-11.4,11.6
	c0,6,2.3,13.4,5.6,17.7c0,0.3-0.1,0.7-0.1,1c-0.2,0.9-0.5,2-1.4,2.5c-1,0.6-2,0.9-3.1,1.3c-4.4,1.5-8.9,2.8-12.8,5.4
	c-2,1.3-3.4,3.8-4.1,6c-0.8,2.4-1.1,5.3-1,7.6h28.6h28.6C538.4,1352.2,538.1,1349.3,537.3,1347z"/>
<path class="st1" d="M649.8,1347c-0.8-2.3-2.1-4.6-4.1-5.9c-3.9-2.6-8.4-4-12.8-5.4c-1.1-0.4-2.1-0.8-3.1-1.3
	c-0.9-0.5-1.2-1.6-1.4-2.5c-0.1-0.5-0.1-1-0.2-1.5c3.2-4.3,5.3-11.4,5.3-17.2c0-9.1-5.1-11.6-11.4-11.6c-6.3,0-11.4,2.5-11.4,11.6
	c0,6,2.3,13.4,5.6,17.7c0,0.3-0.1,0.7-0.1,1c-0.2,0.9-0.5,2-1.4,2.5c-1,0.6-2,0.9-3.1,1.3c-4.4,1.5-8.9,2.8-12.8,5.4
	c-2,1.3-3.4,3.8-4.1,6c-0.8,2.4-1.1,5.3-1,7.6h28.6h28.6C650.9,1352.2,650.6,1349.3,649.8,1347z"/>
<path class="st1" d="M763.4,1347c-0.8-2.3-2.1-4.6-4.1-5.9c-3.9-2.6-8.4-4-12.8-5.4c-1.1-0.4-2.1-0.8-3.1-1.3
	c-0.9-0.5-1.2-1.6-1.4-2.5c-0.1-0.5-0.1-1-0.2-1.5c3.2-4.3,5.3-11.4,5.3-17.2c0-9.1-5.1-11.6-11.4-11.6c-6.3,0-11.4,2.5-11.4,11.6
	c0,6,2.3,13.4,5.6,17.7c0,0.3-0.1,0.7-0.1,1c-0.2,0.9-0.5,2-1.4,2.5c-1,0.6-2,0.9-3.1,1.3c-4.4,1.5-8.9,2.8-12.8,5.4
	c-2,1.3-3.4,3.8-4.1,6c-0.8,2.4-1.1,5.3-1,7.6h28.6h28.6C764.4,1352.2,764.1,1349.3,763.4,1347z"/>
<path class="st1" d="M876.4,1347.5c-0.8-2.3-2.1-4.6-4.1-5.9c-3.9-2.6-8.4-4-12.8-5.4c-1.1-0.4-2.1-0.8-3.1-1.3
	c-0.9-0.5-1.2-1.6-1.4-2.5c-0.1-0.5-0.1-1-0.2-1.5c3.2-4.3,5.3-11.4,5.3-17.2c0-9.1-5.1-11.6-11.4-11.6c-6.3,0-11.4,2.5-11.4,11.6
	c0,6,2.3,13.4,5.6,17.7c0,0.3-0.1,0.7-0.1,1c-0.2,0.9-0.5,2-1.4,2.5c-1,0.6-2,0.9-3.1,1.3c-4.4,1.5-8.9,2.8-12.8,5.4
	c-2,1.3-3.4,3.8-4.1,6c-0.8,2.4-1.1,5.3-1,7.6h28.6h28.6C877.4,1352.8,877.1,1349.9,876.4,1347.5z"/>
<path class="st1" d="M989.9,1347.5c-0.8-2.3-2.1-4.6-4.1-5.9c-3.9-2.6-8.4-4-12.8-5.4c-1.1-0.4-2.1-0.8-3.1-1.3
	c-0.9-0.5-1.2-1.6-1.4-2.5c-0.1-0.5-0.1-1-0.2-1.5c3.2-4.3,5.3-11.4,5.3-17.2c0-9.1-5.1-11.6-11.4-11.6c-6.3,0-11.4,2.5-11.4,11.6
	c0,6,2.3,13.4,5.6,17.7c0,0.3-0.1,0.7-0.1,1c-0.2,0.9-0.5,2-1.4,2.5c-1,0.6-2,0.9-3.1,1.3c-4.4,1.5-8.9,2.8-12.8,5.4
	c-2,1.3-3.4,3.8-4.1,6c-0.8,2.4-1.1,5.3-1,7.6h28.6H991C991,1352.8,990.7,1349.9,989.9,1347.5z"/>
</svg>
