<?xml version="1.0" encoding="utf-8"?>
<!-- Generator: Adobe Illustrator 19.2.1, SVG Export Plug-In . SVG Version: 6.00 Build 0)  -->
<svg version="1.1" id="Ebene_1" xmlns="http://www.w3.org/2000/svg" xmlns:xlink="http://www.w3.org/1999/xlink" x="0px" y="0px"
	 viewBox="0 0 640 360" style="enable-background:new 0 0 640 360;" xml:space="preserve">
<g>
	<path d="M519.9,339.5c0,2.8,0,5.7,0,8.5c0,0.8-0.2,1.1-1,1c-0.2,0-0.5,0-0.8,0c-120,0-240.1,0-360.1,0c-1.4,0-1.8-0.3-1.7-1.7
		c0.1-4.1,0-8.2,0-12.3c0.5-4.1,0.8-8.3,1.4-12.4c1.8-13.1,5.2-25.8,11.5-37.5c5-9.3,11.2-17.5,20.1-23.4
		c10.5-6.9,21.7-12.4,33.4-17.2c15.6-6.4,31.7-11.3,47.6-16.7c6.5-2.2,13-4.5,19-7.9c2.5-1.4,4.5-3.4,5.9-5.9
		c2.6-4.7,3.6-9.8,4.2-15c0.1-1-0.3-1.8-0.9-2.6c-5.7-7.6-10.5-15.7-14.5-24.3c-14.8-32.4-22.6-66.1-19.3-101.9
		c0.9-10.2,3.7-20,8.7-29.1c7.9-14.2,20.3-22.3,35.7-26.5c5.7-1.5,11.5-2.2,17.3-2.9c6.9,0,13.9,0,20.8,0c4.7,0.6,9.4,1.1,14,2.1
		c23.6,5.2,38.8,19.2,45.1,42.7c3.8,14.1,4,28.5,2.8,42.9c-1,12.6-3.3,25.1-6.6,37.3c-5.4,19.7-12.8,38.5-24.4,55.4
		c-1.5,2.2-1.9,4.3-1.6,6.7c0.2,1.6,0.4,3.2,0.7,4.9c1.5,8.7,5.3,15.7,14.2,18.9c0.7,0.3,1.4,0.6,2.1,0.9c10.7,4.7,22,7.9,33.1,11.7
		c17.7,6.1,35.1,12.8,51.5,22c11.6,6.5,21.2,14.8,27.8,26.4c7.7,13.6,11.3,28.5,13,43.8C519.3,331.6,519.6,335.5,519.9,339.5z"/>
</g>
</svg>
